<svg width="23" height="22" viewBox="0 0 23 22" fill="none" xmlns="http://www.w3.org/2000/svg">
<path d="M9.73802 2.91135L1.26802 17.0514C1.09339 17.3538 1.00099 17.6967 1.00001 18.0459C0.99903 18.3951 1.08951 18.7385 1.26245 19.0419C1.43538 19.3453 1.68474 19.5981 1.98573 19.7752C2.28671 19.9523 2.62882 20.0475 2.97802 20.0514H19.918C20.2672 20.0475 20.6093 19.9523 20.9103 19.7752C21.2113 19.5981 21.4607 19.3453 21.6336 19.0419C21.8065 18.7385 21.897 18.3951 21.896 18.0459C21.8951 17.6967 21.8027 17.3538 21.628 17.0514L13.158 2.91135C12.9797 2.61746 12.7287 2.37447 12.4292 2.20584C12.1297 2.0372 11.7918 1.94861 11.448 1.94861C11.1043 1.94861 10.7663 2.0372 10.4668 2.20584C10.1673 2.37447 9.91629 2.61746 9.73802 2.91135V2.91135Z" stroke="currentColor" stroke-width="2" stroke-linecap="round" stroke-linejoin="round"/>
<path d="M11.4482 8.05139V12.0514" stroke="currentColor" stroke-width="2" stroke-linecap="round" stroke-linejoin="round"/>
<path d="M11.4482 16.0514H11.4582" stroke="currentColor" stroke-width="2" stroke-linecap="round" stroke-linejoin="round"/>
</svg>
