<svg width="23" height="22" viewBox="0 0 23 22" fill="none" xmlns="http://www.w3.org/2000/svg">
<path d="M9.73802 2.91099L1.26802 17.051C1.09339 17.3534 1.00099 17.6963 1.00001 18.0455C0.99903 18.3947 1.08951 18.7381 1.26245 19.0415C1.43538 19.3449 1.68474 19.5977 1.98573 19.7748C2.28671 19.9519 2.62882 20.0471 2.97802 20.051H19.918C20.2672 20.0471 20.6093 19.9519 20.9103 19.7748C21.2113 19.5977 21.4607 19.3449 21.6336 19.0415C21.8065 18.7381 21.897 18.3947 21.896 18.0455C21.8951 17.6963 21.8027 17.3534 21.628 17.051L13.158 2.91099C12.9797 2.61709 12.7287 2.37411 12.4292 2.20547C12.1297 2.03683 11.7918 1.94824 11.448 1.94824C11.1043 1.94824 10.7663 2.03683 10.4668 2.20547C10.1673 2.37411 9.91629 2.61709 9.73802 2.91099V2.91099Z" stroke="#FF6207" stroke-width="2" stroke-linecap="round" stroke-linejoin="round"/>
<path d="M11.4482 8.05078V12.0508" stroke="#FF6207" stroke-width="2" stroke-linecap="round" stroke-linejoin="round"/>
<path d="M11.4482 16.0508H11.4582" stroke="#FF6207" stroke-width="2" stroke-linecap="round" stroke-linejoin="round"/>
</svg>
