<svg width="23" height="30" viewBox="0 0 23 30" fill="none" xmlns="http://www.w3.org/2000/svg">
<path d="M6.90144 22.808L6.89583 22.8018C6.79198 22.6877 6.75 22.5457 6.75 22.4006C6.75 22.2623 6.78913 22.1109 6.91415 22.0033C7.02136 21.9037 7.15536 21.8621 7.29273 21.8621H8.44581V16.1979L7.73661 16.7301C7.64302 16.8018 7.5271 16.8586 7.39367 16.8586H7.37846L7.36336 16.8568C7.24445 16.8423 7.13875 16.7887 7.05733 16.6992M6.90144 22.808L7.05733 16.6992M6.90144 22.808L6.90745 22.8138C7.01576 22.918 7.15249 22.9613 7.29273 22.9613H10.6137C10.7504 22.9613 10.8962 22.9233 11.0049 22.808C11.1196 22.6939 11.1564 22.5428 11.1564 22.4006C11.1564 22.2646 11.1186 22.1159 10.9984 22.0086C10.8904 21.8986 10.7477 21.8621 10.6137 21.8621H9.56155V15.3605L9.7987 15.1825H9.56155V15.1329C9.56155 14.9961 9.5305 14.833 9.40404 14.7193M6.90144 22.808L9.40404 14.7193M7.05733 16.6992C6.99295 16.6284 6.94557 16.5465 6.9148 16.4564L6.91055 16.4439L6.90764 16.4311C6.88321 16.3237 6.89135 16.2164 6.92226 16.1145C6.96102 15.9867 7.04297 15.8881 7.14701 15.8173M7.05733 16.6992L7.14701 15.8173M7.14701 15.8173L8.53386 14.7568L8.54079 14.7515L8.54807 14.7467C8.62405 14.6966 8.69907 14.6545 8.77214 14.6244M7.14701 15.8173L8.77214 14.6244M8.77214 14.6244C8.86052 14.588 8.95416 14.5722 9.0491 14.5722C9.18345 14.5722 9.30804 14.6205 9.40404 14.7193M8.77214 14.6244L9.40404 14.7193M11.5155 21.9073L11.5155 21.9074L11.5171 21.9099C11.9799 22.6649 12.6698 23.05 13.5572 23.05C14.1397 23.05 14.646 22.8825 15.0599 22.5371C15.4708 22.1942 15.7649 21.6957 15.9562 21.0652C16.1543 20.4348 16.25 19.676 16.25 18.7945C16.25 17.4593 16.0432 16.4101 15.5977 15.6796C15.1405 14.9298 14.4493 14.55 13.5572 14.55C12.9747 14.55 12.4684 14.7176 12.0545 15.063C11.6448 15.405 11.3472 15.8985 11.1488 16.5217L11.1488 16.5217L11.148 16.5242C10.9567 17.1474 10.8645 17.91 10.8645 18.8056C10.8645 20.1202 11.0718 21.1637 11.5155 21.9073ZM14.6989 16.3482L14.6989 16.3482L14.7007 16.3516C14.9655 16.8346 15.1141 17.6363 15.1141 18.7945C15.1141 19.9364 14.966 20.7403 14.6994 21.2399C14.5685 21.4851 14.4095 21.6569 14.2269 21.7684C14.0446 21.8797 13.8245 21.9398 13.5572 21.9398C13.29 21.9398 13.0698 21.8797 12.8876 21.7684C12.7049 21.6569 12.546 21.4851 12.4151 21.2399C12.1485 20.7403 12.0004 19.9364 12.0004 18.7945C12.0004 17.6445 12.1487 16.8416 12.4144 16.3503C12.5449 16.109 12.7036 15.9398 12.8863 15.8297C13.0688 15.7198 13.2894 15.6603 13.5572 15.6603C13.829 15.6603 14.0512 15.72 14.2332 15.8297C14.4153 15.9394 14.5719 16.1079 14.6989 16.3482Z" fill="currentColor" stroke="currentColor" stroke-width="0.5"/>
<path fill-rule="evenodd" clip-rule="evenodd" d="M0.200719 7.13722C0.462009 6.87008 0.890388 6.86533 1.15753 7.12662L7.42868 13.2604C7.69582 13.5217 7.70057 13.9501 7.43928 14.2172C7.17799 14.4844 6.74961 14.4891 6.48246 14.2278L0.211314 8.09403C-0.0558279 7.83274 -0.0605717 7.40436 0.200719 7.13722Z" fill="currentColor"/>
<path fill-rule="evenodd" clip-rule="evenodd" d="M7.43928 1.00355C7.70057 1.27069 7.69582 1.69907 7.42868 1.96036L1.15753 8.09414C0.890388 8.35543 0.462009 8.35069 0.200719 8.08355C-0.0605717 7.8164 -0.0558279 7.38803 0.211314 7.12673L6.48246 0.992955C6.74961 0.731665 7.17799 0.736408 7.43928 1.00355Z" fill="currentColor"/>
<path fill-rule="evenodd" clip-rule="evenodd" d="M0.684887 6.93468L11.5047 6.9342C16.1352 6.9342 20.2348 9.72372 22.0032 13.9915C23.7735 18.2638 22.7949 23.1814 19.5239 26.4512C16.253 29.7209 11.3339 30.699 7.06028 28.9295C2.78666 27.1599 0 22.9911 0 18.3668C0 17.9931 0.302928 17.6901 0.676609 17.6901C1.05029 17.6901 1.35322 17.9931 1.35322 18.3668C1.35322 22.4435 3.80989 26.119 7.57797 27.6792C11.3461 29.2394 15.6833 28.377 18.5673 25.4941C21.4511 22.6113 22.3138 18.2759 20.7531 14.5095C19.1905 10.7385 15.5785 8.28743 11.5047 8.28742C11.5047 8.28742 11.5047 8.28742 11.5047 8.28742L0.684946 8.2879C0.311265 8.28791 0.00832367 7.985 0.00830737 7.61132C0.00829103 7.23763 0.311206 6.93469 0.684887 6.93468Z" fill="currentColor"/>
</svg>
