<svg width="24" height="17" viewBox="0 0 24 17" fill="none" xmlns="http://www.w3.org/2000/svg">
<path d="M7.56669 16.6285C5.57336 16.4509 3.79969 15.6377 2.41191 14.265C0.40414 12.2792 -0.418805 9.45369 0.203804 6.68376C0.242436 6.5119 0.339233 6.17563 0.41891 5.93651C1.56018 2.51143 4.88402 0.2261 8.52466 0.363355C8.78153 0.37304 9.01951 0.388219 9.0535 0.397087L9.11532 0.413211V1.63394V2.85468L8.9024 2.83317C8.47964 2.79045 7.64532 2.81127 7.28839 2.87344C6.38929 3.03004 5.59419 3.36158 4.82629 3.90007C4.52951 4.10819 3.79151 4.83813 3.5811 5.13166C3.04196 5.88379 2.71003 6.65809 2.543 7.55329C2.49419 7.81488 2.48469 7.96978 2.48469 8.50433C2.48469 9.03888 2.49419 9.19379 2.543 9.45538C2.71003 10.3506 3.04196 11.1249 3.5811 11.877C3.79151 12.1705 4.52951 12.9005 4.82629 13.1086C5.59419 13.6471 6.38929 13.9786 7.28839 14.1352C7.64532 14.1974 8.47964 14.2182 8.9024 14.1755L9.11532 14.154V15.3747V16.5955L9.0535 16.6124C8.94636 16.6419 7.84994 16.6537 7.56669 16.6285ZM21.5777 16.6285C19.5849 16.4511 17.8107 15.6376 16.423 14.265C15.5028 13.3549 14.8331 12.282 14.43 11.0722C13.8683 9.38659 13.8683 7.62208 14.43 5.93651C15.5727 2.50703 18.8869 0.230869 22.5455 0.362875C22.8078 0.372338 23.0334 0.38683 23.0469 0.395079C23.0607 0.403523 23.0714 0.943912 23.0714 1.63148V2.85289L22.9135 2.83227C22.8266 2.82093 22.5021 2.81239 22.1923 2.81329C21.7442 2.81458 21.5617 2.82676 21.2994 2.87289C20.3965 3.03168 19.6046 3.36204 18.8373 3.90007C18.5406 4.10819 17.8026 4.83813 17.5922 5.13166C17.1819 5.70396 16.8886 6.29465 16.7091 6.91011C16.6575 7.08691 16.6154 7.24281 16.6154 7.25656C16.6154 7.27159 17.5743 7.28156 19.0192 7.28156H21.4231V8.50433V9.7271H19.0192C17.5743 9.7271 16.6154 9.73708 16.6154 9.7521C16.6154 9.76585 16.6575 9.92176 16.7091 10.0986C16.8886 10.714 17.1819 11.3047 17.5922 11.877C17.8026 12.1705 18.5406 12.9005 18.8373 13.1086C19.6046 13.6466 20.3965 13.977 21.2994 14.1358C21.5617 14.1819 21.7442 14.1941 22.1923 14.1954C22.5021 14.1963 22.8266 14.1877 22.9135 14.1764L23.0714 14.1558V15.3772C23.0714 16.1647 23.0616 16.6046 23.0439 16.6154C22.9972 16.644 21.865 16.654 21.5777 16.6285V16.6285Z" fill="#515570" class="pathfill"/>
</svg>
