<svg width="18" height="17" viewBox="0 0 18 17" fill="none" xmlns="http://www.w3.org/2000/svg">
<path d="M11.1056 12.088C11.0264 10.1388 11.5344 9.11747 11.7982 8.85046C12.6853 8.29414 13.0409 7.5143 13.1227 7.14031M11.1056 12.088H13.1339L13.9585 14.875H4.16305L4.87214 12.088H6.884M11.1056 12.088H6.884M6.884 12.088C6.93897 11.0088 6.91368 8.85046 6.37279 8.85046C5.84288 8.57961 4.79696 7.8678 4.74244 7.14031M4.74022 3.44339C4.74022 4.83577 4.74022 6.53178 4.74022 7.08148C4.74022 7.10109 4.74097 7.12071 4.74244 7.14031M4.74022 3.44339C4.74022 2.94198 4.74022 2.47995 4.74022 2.125H13.1339V3.44339M4.74022 3.44339H2.71187C2.48248 4.61743 2.56745 7.00046 4.74244 7.14031M13.1339 3.44339V7.08148C13.131 7.09975 13.1273 7.11939 13.1227 7.14031M13.1339 3.44339H15.2612C15.5341 4.44498 15.4884 6.58659 13.1227 7.14031" stroke="#9C7CEB" stroke-width="1.275"/>
</svg>
