<svg width="200" height="200" viewBox="0 0 200 200" fill="none" xmlns="http://www.w3.org/2000/svg">
<path d="M39.5 83.571H159.5M39.5 83.571V40.1433C39.5 31.0959 51.5 13.001 99.5 13.001C147.5 13.001 159.5 31.0959 159.5 40.1433V83.571M39.5 83.571V113.428M159.5 83.571V113.428M39.5 143.284C39.5 157.76 51.5 186.712 99.5 186.712C147.5 186.712 159.5 157.76 159.5 143.284M39.5 143.284V113.428M39.5 143.284C31.5 145.094 15.5 144.37 15.5 126.999C15.5 109.628 31.5 110.713 39.5 113.428M159.5 143.284V113.428M159.5 143.284C167.5 145.094 183.5 144.37 183.5 126.999C183.5 109.628 167.5 110.713 159.5 113.428" stroke="#515570" stroke-width="15.9998" stroke-linecap="round" stroke-linejoin="round"/>
<rect x="92.2969" y="30.3755" width="12.8" height="34.7422" fill="#515570"/>
<rect x="79.5" y="53.5312" width="11.5807" height="38.4" transform="rotate(-90 79.5 53.5312)" fill="#515570"/>
</svg>
