<svg width="31" height="31" viewBox="0 0 31 31" fill="none" xmlns="http://www.w3.org/2000/svg">
<path d="M18.0833 2.58325H7.74996C7.06482 2.58325 6.40774 2.85542 5.92327 3.33989C5.4388 3.82436 5.16663 4.48144 5.16663 5.16659V25.8333C5.16663 26.5184 5.4388 27.1755 5.92327 27.6599C6.40774 28.1444 7.06482 28.4166 7.74996 28.4166H23.25C23.9351 28.4166 24.5922 28.1444 25.0767 27.6599C25.5611 27.1755 25.8333 26.5184 25.8333 25.8333V10.3333L18.0833 2.58325Z" stroke="currentColor" stroke-width="2" stroke-linecap="round" stroke-linejoin="round"/>
<path d="M18.0834 2.58325V10.3333H25.8334" stroke="currentColor" stroke-width="2" stroke-linecap="round" stroke-linejoin="round"/>
<path d="M20.6667 16.7917H10.3334" stroke="currentColor" stroke-width="2" stroke-linecap="round" stroke-linejoin="round"/>
<path d="M20.6667 21.9583H10.3334" stroke="currentColor" stroke-width="2" stroke-linecap="round" stroke-linejoin="round"/>
<path d="M12.9167 11.625H11.625H10.3334" stroke="currentColor" stroke-width="2" stroke-linecap="round" stroke-linejoin="round"/>
</svg>
