<svg width="23" height="30" viewBox="0 0 23 30" fill="none" xmlns="http://www.w3.org/2000/svg">
<path d="M6.02741 22.808L6.0218 22.8018C5.91796 22.6877 5.87598 22.5457 5.87598 22.4006C5.87598 22.2623 5.9151 22.1109 6.04012 22.0033C6.14734 21.9037 6.28134 21.8621 6.41871 21.8621H7.57179V16.1979L6.86259 16.7301C6.769 16.8018 6.65308 16.8586 6.51965 16.8586H6.50444L6.48934 16.8568C6.37043 16.8423 6.26473 16.7887 6.18331 16.6992M6.02741 22.808L6.18331 16.6992M6.02741 22.808L6.03342 22.8138C6.14173 22.918 6.27846 22.9613 6.41871 22.9613H9.73967C9.87642 22.9613 10.0222 22.9233 10.1309 22.808C10.2455 22.6939 10.2824 22.5428 10.2824 22.4006C10.2824 22.2646 10.2445 22.1159 10.1244 22.0086C10.0164 21.8986 9.87371 21.8621 9.73967 21.8621H8.68753V15.3605L8.92468 15.1825H8.68753V15.1329C8.68753 14.9961 8.65648 14.833 8.53002 14.7193M6.02741 22.808L8.53002 14.7193M6.18331 16.6992C6.11893 16.6284 6.07155 16.5465 6.04078 16.4564L6.03653 16.4439L6.03361 16.4311C6.00919 16.3237 6.01732 16.2164 6.04824 16.1145C6.087 15.9867 6.16895 15.8881 6.27298 15.8173M6.18331 16.6992L6.27298 15.8173M6.27298 15.8173L7.65983 14.7568L7.66677 14.7515L7.67405 14.7467C7.75002 14.6966 7.82505 14.6545 7.89811 14.6244M6.27298 15.8173L7.89811 14.6244M7.89811 14.6244C7.9865 14.588 8.08013 14.5722 8.17508 14.5722C8.30943 14.5722 8.43402 14.6205 8.53002 14.7193M7.89811 14.6244L8.53002 14.7193M10.6415 21.9073L10.6415 21.9074L10.643 21.9099C11.1059 22.6649 11.7958 23.05 12.6832 23.05C13.2657 23.05 13.772 22.8825 14.1859 22.5371C14.5968 22.1942 14.8908 21.6957 15.0822 21.0652C15.2803 20.4348 15.376 19.676 15.376 18.7945C15.376 17.4593 15.1692 16.4101 14.7237 15.6796C14.2665 14.9298 13.5753 14.55 12.6832 14.55C12.1007 14.55 11.5944 14.7176 11.1805 15.063C10.7708 15.405 10.4732 15.8985 10.2748 16.5217L10.2747 16.5217L10.274 16.5242C10.0826 17.1474 9.99043 17.91 9.99043 18.8056C9.99043 20.1202 10.1978 21.1637 10.6415 21.9073ZM13.8249 16.3482L13.8249 16.3482L13.8267 16.3516C14.0915 16.8346 14.24 17.6363 14.24 18.7945C14.24 19.9364 14.092 20.7403 13.8254 21.2399C13.6945 21.4851 13.5355 21.6569 13.3529 21.7684C13.1706 21.8797 12.9505 21.9398 12.6832 21.9398C12.4159 21.9398 12.1958 21.8797 12.0135 21.7684C11.8309 21.6569 11.6719 21.4851 11.5411 21.2399C11.2744 20.7403 11.1264 19.9364 11.1264 18.7945C11.1264 17.6445 11.2747 16.8416 11.5404 16.3503C11.6709 16.109 11.8296 15.9398 12.0123 15.8297C12.1947 15.7198 12.4153 15.6603 12.6832 15.6603C12.955 15.6603 13.1771 15.72 13.3592 15.8297C13.5412 15.9394 13.6978 16.1079 13.8249 16.3482Z" fill="currentColor" stroke="currentColor" stroke-width="0.5"/>
<path fill-rule="evenodd" clip-rule="evenodd" d="M22.7998 7.13722C22.5385 6.87008 22.1101 6.86533 21.843 7.12662L15.5718 13.2604C15.3047 13.5217 15.2999 13.9501 15.5612 14.2172C15.8225 14.4844 16.2509 14.4891 16.518 14.2278L22.7892 8.09403C23.0563 7.83274 23.0611 7.40436 22.7998 7.13722Z" fill="currentColor"/>
<path fill-rule="evenodd" clip-rule="evenodd" d="M15.5612 1.00355C15.2999 1.27069 15.3047 1.69907 15.5718 1.96036L21.843 8.09414C22.1101 8.35543 22.5385 8.35069 22.7998 8.08355C23.0611 7.8164 23.0563 7.38803 22.7892 7.12673L16.518 0.992955C16.2509 0.731665 15.8225 0.736408 15.5612 1.00355Z" fill="currentColor"/>
<path fill-rule="evenodd" clip-rule="evenodd" d="M11.4954 8.28742C7.42169 8.28743 3.80965 10.7385 2.24707 14.5095C0.686387 18.2759 1.54903 22.6113 4.43289 25.4941C7.3168 28.377 11.6541 29.2394 15.4222 27.6792C19.1903 26.119 21.6469 22.4435 21.6469 18.3668C21.6469 17.9931 21.9499 17.6901 22.3235 17.6901C22.6972 17.6901 23.0001 17.9931 23.0001 18.3668C23.0001 22.9911 20.2135 27.1599 15.9399 28.9295C11.6663 30.699 6.74715 29.7209 3.4762 26.4512C0.205206 23.1814 -0.773371 18.2638 0.996929 13.9915C2.76533 9.72372 6.86494 6.9342 11.4955 6.9342L22.3153 6.93468C22.6889 6.93469 22.9919 7.23763 22.9918 7.61132C22.9918 7.985 22.6889 8.28791 22.3152 8.2879L11.4954 8.28742C11.4954 8.28742 11.4954 8.28742 11.4954 8.28742Z" fill="currentColor"/>
</svg>
