<svg width="18" height="19" viewBox="0 0 18 19" fill="none" xmlns="http://www.w3.org/2000/svg">
<circle cx="9.00019" cy="9.50019" r="8.63219" fill="#FFDC62" stroke="#D7B43A" stroke-width="0.264006"/>
<ellipse cx="9.00103" cy="9.50005" rx="6.28619" ry="6.28619" fill="white"/>
<path d="M8.48084 6.31677C8.72389 5.93836 9.27698 5.93836 9.52003 6.31677L10.2317 7.42479C10.3153 7.55499 10.4448 7.64905 10.5945 7.68835L11.8682 8.0228C12.3032 8.13702 12.4741 8.66304 12.1893 9.01113L11.3554 10.0304C11.2575 10.1501 11.208 10.3023 11.2169 10.4568L11.2924 11.7715C11.3182 12.2205 10.8707 12.5456 10.4517 12.3824L9.22463 11.9043C9.08045 11.8481 8.92043 11.8481 8.77624 11.9043L7.5492 12.3824C7.13014 12.5456 6.68269 12.2205 6.70847 11.7715L6.78399 10.4568C6.79286 10.3023 6.74341 10.1501 6.64543 10.0304L5.81156 9.01113C5.52678 8.66304 5.69769 8.13702 6.13269 8.0228L7.4064 7.68835C7.55607 7.64905 7.68553 7.55499 7.76916 7.42479L8.48084 6.31677Z" fill="#FFB762"/>
</svg>
