<svg width="17" height="14" viewBox="0 0 17 14" fill="none" xmlns="http://www.w3.org/2000/svg">
<path d="M1.30957 6.72514L8.22313 0.53782C8.38076 0.396754 8.61924 0.396754 8.77686 0.53782L15.6904 6.72514C15.9744 6.97926 15.7946 7.44967 15.4136 7.44967H13.8274C13.5982 7.44967 13.4123 7.63554 13.4123 7.86483V12.7781C13.4123 13.0074 13.2264 13.1933 12.9971 13.1933H4.00288C3.77359 13.1933 3.58772 13.0074 3.58772 12.7781V7.86483C3.58772 7.63554 3.40185 7.44967 3.17256 7.44967H1.58643C1.20537 7.44967 1.02562 6.97926 1.30957 6.72514Z" stroke="#9C7CEB" stroke-width="0.83871" stroke-linejoin="round"/>
<mask id="path-2-inside-1_7635_17447" fill="white">
<rect x="6.69531" y="9.58105" width="3.65463" height="4.12903" rx="0.335467"/>
</mask>
<rect x="6.69531" y="9.58105" width="3.65463" height="4.12903" rx="0.335467" stroke="#9C7CEB" stroke-width="1.34194" stroke-linejoin="round" mask="url(#path-2-inside-1_7635_17447)"/>
</svg>
