<svg width="31" height="27" viewBox="0 0 31 27" fill="none" xmlns="http://www.w3.org/2000/svg">
<path d="M1.9305 13.1441L14.8398 1.59086C15.2157 1.25447 15.7843 1.25448 16.1602 1.59086L29.0695 13.1441C29.7466 13.75 29.318 14.8718 28.4093 14.8718H26.0075C25.4608 14.8718 25.0175 15.315 25.0175 15.8618V25.01C25.0175 25.5568 24.5743 26 24.0275 26H6.97246C6.42569 26 5.98246 25.5568 5.98246 25.01V15.8618C5.98246 15.315 5.53922 14.8718 4.99246 14.8718H2.59072C1.68204 14.8718 1.25339 13.75 1.9305 13.1441Z" stroke="currentColor" stroke-width="2" stroke-linejoin="round"/>
<rect x="12" y="19" width="7.08084" height="8" rx="0.799961" stroke="currentColor" stroke-width="2.2" stroke-linejoin="round" />
</svg>
