<svg width="200" height="200" viewBox="0 0 200 200" fill="none" xmlns="http://www.w3.org/2000/svg">
<path d="M124.772 142.212C123.841 119.28 129.816 107.264 132.92 104.123C143.356 97.5781 147.54 88.4035 148.503 84.0036M124.772 142.212H148.635L158.335 175H43.0947L51.437 142.212H75.1059M124.772 142.212H75.1059M75.1059 142.212C75.7526 129.516 75.4551 104.123 69.0917 104.123C62.8574 100.937 50.5524 92.5624 49.911 84.0036M49.8849 40.5105C49.8849 56.8915 49.8849 76.8445 49.8849 83.3115C49.8849 83.5423 49.8937 83.773 49.911 84.0036M49.8849 40.5105C49.8849 34.6116 49.8849 29.1759 49.8849 25H148.635V40.5105M49.8849 40.5105H26.022C23.3233 54.3227 24.3229 82.3584 49.911 84.0036M148.635 40.5105V83.3115C148.6 83.5264 148.557 83.7576 148.503 84.0036M148.635 40.5105H173.661C176.872 52.2939 176.334 77.4893 148.503 84.0036" stroke="url(#paint0_linear_6161_6700)" stroke-width="15"/>
<defs>
<linearGradient id="paint0_linear_6161_6700" x1="175" y1="33.6595" x2="82.7915" y2="199.992" gradientUnits="userSpaceOnUse">
<stop stop-color="#55C0E1"/>
<stop offset="1" stop-color="#D157D3"/>
</linearGradient>
</defs>
</svg>
