<svg width="100" height="100" viewBox="0 0 100 100" fill="none" xmlns="http://www.w3.org/2000/svg">
<path d="M18 81.6726L30.7949 73.8296L37.3761 81.6726L81.5 54M81.5 54L75.5 52.5M81.5 54L80.0043 60.0673M64.5 64V28.4066M64.5 28.4066V18H80.5L77.3317 23.1279L80.5 28.4066H64.5ZM40.4951 79V49.3811C41.2874 46.775 43.0502 41.5629 43.7633 41.5629C44.6546 41.5629 40.9408 39.0069 34.256 51.1853C32.1763 51.5862 29.2646 50.4937 34.256 42.9161C35.593 40.8112 40.3467 36.2406 45.6945 36C47.7247 36.1504 50.9235 37.5336 52.825 39.458C55.2018 41.8636 57.4301 43.5175 58.6185 43.8182C59.8069 44.1189 65.4623 40.6477 66.3432 40.5105C68.2744 40.2098 70.7998 41.4126 68.72 44.7203L61.441 48.479C60.9458 48.7797 59.3019 49.2007 56.6873 48.479L51.6366 44.5699L49.2598 50.4336L58.3214 60.3567L58.6185 68.0245L53.4192 71.0315V62.7623L46.4373 55.0944C46.0907 54.894 45.338 54.6133 45.1003 55.0944C44.8626 55.5756 45.401 68.8834 45.5 76L40.4951 79ZM58.5 29.5C58.5 32.5376 56.0376 35 53 35C49.9624 35 47.5 32.5376 47.5 29.5C47.5 26.4624 49.9624 24 53 24C56.0376 24 58.5 26.4624 58.5 29.5Z" stroke="black" stroke-opacity="0.8" stroke-width="3" stroke-linecap="round" stroke-linejoin="round"/>
</svg>
