<svg width="100" height="100" viewBox="0 0 100 100" fill="none" xmlns="http://www.w3.org/2000/svg">
<path d="M24.9609 36H44.9609" stroke="black" stroke-width="2.5" stroke-linecap="round"/>
<path d="M24.9609 43H51.9609" stroke="black" stroke-width="2.5" stroke-linecap="round"/>
<path d="M24.9609 50H51.9609" stroke="black" stroke-width="2.5" stroke-linecap="round"/>
<path d="M24.9609 57H51.9609" stroke="black" stroke-width="2.5" stroke-linecap="round"/>
<path d="M24.9609 64H45.9609" stroke="black" stroke-width="2.5" stroke-linecap="round"/>
<rect x="70.7517" y="35.7081" width="9.27938" height="31.4216" transform="rotate(43.044 70.7517 35.7081)" fill="black" stroke="black" stroke-width="2.5"/>
<path d="M70.7903 35.2994L77.9374 41.9744L79.4967 40.3048C81.34 38.3312 81.2343 35.237 79.2607 33.3938C77.2871 31.5505 74.1929 31.6562 72.3497 33.6298L70.7903 35.2994Z" stroke="black" stroke-width="2"/>
<path d="M46.2553 69.759C45.6493 69.8204 45.1296 69.3303 45.1554 68.7217L45.4759 61.1586C45.5122 60.3026 46.5378 59.8856 47.1611 60.4734L54.3718 67.273C54.9951 67.8608 54.639 68.909 53.7866 68.9954L46.2553 69.759Z" fill="black"/>
<mask id="path-9-inside-1_5589_4296" fill="white">
<path fill-rule="evenodd" clip-rule="evenodd" d="M13 27.7769C13 23.4818 16.4818 20 20.7769 20H56.2231C60.5182 20 64 23.4818 64 27.7769V38.4321L59 44.1294V32C59 28.6863 56.3137 26 53 26H24C20.6863 26 18 28.6863 18 32V69C18 72.3137 20.6863 75 24 75H53C56.3137 75 59 72.3137 59 69V65.9245L64 60.2272V73.142C64 77.4371 60.5182 80.9189 56.2231 80.9189H20.7769C16.4818 80.9189 13 77.4371 13 73.142V27.7769Z"/>
</mask>
<path fill-rule="evenodd" clip-rule="evenodd" d="M13 27.7769C13 23.4818 16.4818 20 20.7769 20H56.2231C60.5182 20 64 23.4818 64 27.7769V38.4321L59 44.1294V32C59 28.6863 56.3137 26 53 26H24C20.6863 26 18 28.6863 18 32V69C18 72.3137 20.6863 75 24 75H53C56.3137 75 59 72.3137 59 69V65.9245L64 60.2272V73.142C64 77.4371 60.5182 80.9189 56.2231 80.9189H20.7769C16.4818 80.9189 13 77.4371 13 73.142V27.7769Z" fill="black"/>
<path d="M64 38.4321L67.758 41.7302L69 40.315V38.4321H64ZM59 44.1294H54V57.4068L62.758 47.4275L59 44.1294ZM59 65.9245L55.242 62.6264L54 64.0416V65.9245H59ZM64 60.2272H69V46.9498L60.242 56.9292L64 60.2272ZM20.7769 15C13.7204 15 8 20.7204 8 27.7769H18C18 26.2433 19.2432 25 20.7769 25V15ZM56.2231 15H20.7769V25H56.2231V15ZM69 27.7769C69 20.7204 63.2796 15 56.2231 15V25C57.7567 25 59 26.2433 59 27.7769H69ZM69 38.4321V27.7769H59V38.4321H69ZM62.758 47.4275L67.758 41.7302L60.242 35.134L55.242 40.8313L62.758 47.4275ZM64 44.1294V32H54V44.1294H64ZM64 32C64 25.9249 59.0751 21 53 21V31C53.5523 31 54 31.4477 54 32H64ZM53 21H24V31H53V21ZM24 21C17.9249 21 13 25.9249 13 32H23C23 31.4477 23.4477 31 24 31V21ZM13 32V69H23V32H13ZM13 69C13 75.0751 17.9249 80 24 80V70C23.4477 70 23 69.5523 23 69H13ZM24 80H53V70H24V80ZM53 80C59.0751 80 64 75.0751 64 69H54C54 69.5523 53.5523 70 53 70V80ZM64 69V65.9245H54V69H64ZM60.242 56.9292L55.242 62.6264L62.758 69.2226L67.758 63.5253L60.242 56.9292ZM69 73.142V60.2272H59V73.142H69ZM56.2231 85.9189C63.2796 85.9189 69 80.1985 69 73.142H59C59 74.6756 57.7568 75.9189 56.2231 75.9189V85.9189ZM20.7769 85.9189H56.2231V75.9189H20.7769V85.9189ZM8 73.142C8 80.1985 13.7204 85.9189 20.7769 85.9189V75.9189C19.2433 75.9189 18 74.6756 18 73.142H8ZM8 27.7769V73.142H18V27.7769H8Z" fill="black" mask="url(#path-9-inside-1_5589_4296)"/>
</svg>
