<svg width="48" height="48" viewBox="0 0 48 48" fill="none" xmlns="http://www.w3.org/2000/svg">
<g clip-path="url(#clip0_1396_820)">
<path d="M24 48C10.7472 48 0 37.2528 0 24C0 10.7472 10.7472 0 24 0C37.2528 0 48 10.7472 48 24C48 37.2528 37.2528 48 24 48Z" fill="url(#paint0_linear_1396_820)"/>
<path d="M24 10.5696C28.3728 10.5696 28.8912 10.584 30.6192 10.6656C32.2176 10.7376 33.0864 11.0064 33.6624 11.232C34.4256 11.5296 34.9728 11.8848 35.544 12.456C36.1152 13.0272 36.4704 13.5744 36.768 14.3376C36.9936 14.9136 37.2576 15.7824 37.3344 17.3808C37.4112 19.1088 37.4304 19.6272 37.4304 24C37.4304 28.3728 37.416 28.8912 37.3344 30.6192C37.2624 32.2176 36.9936 33.0864 36.768 33.6624C36.4704 34.4256 36.1152 34.9728 35.544 35.544C34.9728 36.1152 34.4256 36.4704 33.6624 36.768C33.0864 36.9936 32.2176 37.2576 30.6192 37.3344C28.8912 37.4112 28.3728 37.4304 24 37.4304C19.6272 37.4304 19.1088 37.416 17.3808 37.3344C15.7824 37.2624 14.9136 36.9936 14.3376 36.768C13.5744 36.4704 13.0272 36.1152 12.456 35.544C11.8848 34.9728 11.5296 34.4256 11.232 33.6624C11.0064 33.0864 10.7424 32.2176 10.6656 30.6192C10.5888 28.8912 10.5696 28.3728 10.5696 24C10.5696 19.6272 10.584 19.1088 10.6656 17.3808C10.7376 15.7824 11.0064 14.9136 11.232 14.3376C11.5296 13.5744 11.8848 13.0272 12.456 12.456C13.0272 11.8848 13.5744 11.5296 14.3376 11.232C14.9136 11.0064 15.7824 10.7424 17.3808 10.6656C19.1088 10.584 19.6272 10.5696 24 10.5696ZM24 7.61761C19.5504 7.61761 18.9936 7.63682 17.2464 7.71842C15.504 7.80002 14.3136 8.07361 13.2672 8.48161C12.192 8.89441 11.2752 9.45601 10.368 10.368C9.45599 11.28 8.89919 12.192 8.47679 13.272C8.07359 14.3136 7.79519 15.504 7.71359 17.2512C7.63199 18.9984 7.61279 19.5552 7.61279 24.0048C7.61279 28.4544 7.63199 29.0112 7.71359 30.7584C7.79519 32.5008 8.06879 33.6912 8.47679 34.7376C8.89439 35.808 9.45599 36.7248 10.368 37.632C11.28 38.544 12.192 39.1008 13.272 39.5232C14.3136 39.9264 15.504 40.2048 17.2512 40.2864C18.9984 40.368 19.5552 40.3872 24.0048 40.3872C28.4544 40.3872 29.0112 40.368 30.7584 40.2864C32.5008 40.2048 33.6912 39.9312 34.7376 39.5232C35.808 39.1056 36.7248 38.544 37.632 37.632C38.544 36.72 39.1008 35.808 39.5232 34.728C39.9264 33.6864 40.2048 32.496 40.2864 30.7488C40.368 29.0016 40.3872 28.4448 40.3872 23.9952C40.3872 19.5456 40.368 18.9888 40.2864 17.2416C40.2048 15.4992 39.9312 14.3088 39.5232 13.2624C39.1056 12.192 38.544 11.2752 37.632 10.368C36.72 9.45601 35.808 8.89922 34.728 8.47682C33.6864 8.07362 32.496 7.79521 30.7488 7.71361C29.0064 7.63681 28.4496 7.61761 24 7.61761Z" fill="white"/>
<path d="M24 15.5856C19.3536 15.5856 15.5856 19.3536 15.5856 24C15.5856 28.6464 19.3536 32.4144 24 32.4144C28.6464 32.4144 32.4144 28.6464 32.4144 24C32.4144 19.3536 28.6464 15.5856 24 15.5856ZM24 29.4624C20.9856 29.4624 18.5376 27.0192 18.5376 24C18.5376 20.9808 20.9856 18.5376 24 18.5376C27.0144 18.5376 29.4624 20.9808 29.4624 24C29.4624 27.0192 27.0144 29.4624 24 29.4624Z" fill="white"/>
<path d="M32.7456 17.2224C33.8325 17.2224 34.7136 16.3413 34.7136 15.2544C34.7136 14.1675 33.8325 13.2864 32.7456 13.2864C31.6587 13.2864 30.7776 14.1675 30.7776 15.2544C30.7776 16.3413 31.6587 17.2224 32.7456 17.2224Z" fill="white"/>
</g>
<defs>
<linearGradient id="paint0_linear_1396_820" x1="7.02943" y1="40.9706" x2="40.9706" y2="7.02943" gradientUnits="userSpaceOnUse">
<stop stop-color="#FFD521"/>
<stop offset="0.0551048" stop-color="#FFD020"/>
<stop offset="0.1241" stop-color="#FEC01E"/>
<stop offset="0.2004" stop-color="#FCA71B"/>
<stop offset="0.2821" stop-color="#FA8316"/>
<stop offset="0.3681" stop-color="#F85510"/>
<stop offset="0.4563" stop-color="#F51E09"/>
<stop offset="0.5" stop-color="#F30005"/>
<stop offset="0.5035" stop-color="#F20007"/>
<stop offset="0.5966" stop-color="#E1003B"/>
<stop offset="0.6879" stop-color="#D30067"/>
<stop offset="0.7757" stop-color="#C70088"/>
<stop offset="0.8589" stop-color="#BF00A0"/>
<stop offset="0.9357" stop-color="#BB00AF"/>
<stop offset="1" stop-color="#B900B4"/>
</linearGradient>
<clipPath id="clip0_1396_820">
<rect width="48" height="48" fill="white"/>
</clipPath>
</defs>
</svg>
