<svg width="13" height="17" viewBox="0 0 13 17" fill="none" xmlns="http://www.w3.org/2000/svg">
<path d="M11.375 16.2501H1.625C1.19402 16.2501 0.780698 16.0789 0.475952 15.7741C0.171205 15.4694 0 15.0561 0 14.6251V8.66675C0 8.23577 0.171205 7.82245 0.475952 7.5177C0.780698 7.21295 1.19402 7.04175 1.625 7.04175H11.375C11.806 7.04175 12.2193 7.21295 12.524 7.5177C12.8288 7.82245 13 8.23577 13 8.66675V14.6251C13 15.0561 12.8288 15.4694 12.524 15.7741C12.2193 16.0789 11.806 16.2501 11.375 16.2501ZM1.625 8.12508C1.48134 8.12508 1.34357 8.18215 1.24198 8.28373C1.1404 8.38531 1.08333 8.52309 1.08333 8.66675V14.6251C1.08333 14.7687 1.1404 14.9065 1.24198 15.0081C1.34357 15.1097 1.48134 15.1667 1.625 15.1667H11.375C11.5187 15.1667 11.6564 15.1097 11.758 15.0081C11.8596 14.9065 11.9167 14.7687 11.9167 14.6251V8.66675C11.9167 8.52309 11.8596 8.38531 11.758 8.28373C11.6564 8.18215 11.5187 8.12508 11.375 8.12508H1.625Z" fill="currentColor"/>
<path d="M10.8333 8.125H2.16667C2.02301 8.125 1.88523 8.06793 1.78365 7.96635C1.68207 7.86477 1.625 7.72699 1.625 7.58333V4.33333C1.625 3.18406 2.08155 2.08186 2.8942 1.2692C3.70686 0.456546 4.80906 0 5.95833 0H7.04167C8.19094 0 9.29314 0.456546 10.1058 1.2692C10.9185 2.08186 11.375 3.18406 11.375 4.33333V7.58333C11.375 7.72699 11.3179 7.86477 11.2164 7.96635C11.1148 8.06793 10.977 8.125 10.8333 8.125ZM2.70833 7.04167H10.2917V4.33333C10.2917 3.47138 9.94926 2.64473 9.33976 2.03524C8.73027 1.42574 7.90362 1.08333 7.04167 1.08333H5.95833C5.09638 1.08333 4.26973 1.42574 3.66024 2.03524C3.05074 2.64473 2.70833 3.47138 2.70833 4.33333V7.04167Z" fill="currentColor"/>
<path d="M6.50002 11.9167C6.28576 11.9167 6.07631 11.8531 5.89815 11.7341C5.72 11.6151 5.58115 11.4459 5.49915 11.2479C5.41716 11.05 5.3957 10.8321 5.4375 10.622C5.4793 10.4118 5.58248 10.2188 5.73399 10.0673C5.8855 9.91579 6.07853 9.81262 6.28867 9.77082C6.49882 9.72902 6.71664 9.75047 6.9146 9.83246C7.11255 9.91446 7.28174 10.0533 7.40078 10.2315C7.51982 10.4096 7.58335 10.6191 7.58335 10.8333C7.58335 11.1207 7.46922 11.3962 7.26605 11.5994C7.06289 11.8025 6.78734 11.9167 6.50002 11.9167Z" fill="currentColor"/>
<path d="M7.04165 11.375H5.95831V13.5417H7.04165V11.375Z" fill="currentColor"/>
</svg>
