<svg width="31" height="18" viewBox="0 0 31 18" fill="none" xmlns="http://www.w3.org/2000/svg">
<rect x="0.5" y="0.5" width="30" height="17" stroke="#515570" class="rectstroke"/>
<path
  d="M4.43262 3.97852H8.50684L10.0791 10.0762L11.6445 3.97852H15.7051V14H13.1758V6.35742L11.2139 14H8.92383L6.96875 6.35742V14H4.43262V3.97852ZM17.7285 3.97852H22.3291C23.236 3.97852 23.9674 4.10156 24.5234 4.34766C25.084 4.59375 25.5465 4.94694 25.9111 5.40723C26.2757 5.86751 26.54 6.40299 26.7041 7.01367C26.8682 7.62435 26.9502 8.27148 26.9502 8.95508C26.9502 10.026 26.8271 10.8577 26.5811 11.4502C26.3395 12.0381 26.0023 12.5326 25.5693 12.9336C25.1364 13.3301 24.6715 13.5944 24.1748 13.7266C23.4958 13.9089 22.8805 14 22.3291 14H17.7285V3.97852ZM20.8252 6.24805V11.7236H21.584C22.2311 11.7236 22.6914 11.653 22.9648 11.5117C23.2383 11.3659 23.4525 11.1152 23.6074 10.7598C23.7624 10.3997 23.8398 9.81868 23.8398 9.0166C23.8398 7.95475 23.6667 7.22786 23.3203 6.83594C22.974 6.44401 22.3997 6.24805 21.5977 6.24805H20.8252Z"
  fill="#515570"
  class="pathfill"
/>
</svg>
