<svg width="13" height="14" viewBox="0 0 13 14" fill="none" xmlns="http://www.w3.org/2000/svg">
<path d="M2.09554 11.0695H2.6696V11.1849C2.6696 12.2455 3.60968 13.108 4.76514 13.108H5.69456H10.13H10.5288H10.9041C12.0599 13.108 13 12.2455 13 11.1849V3.96177C13 2.9015 12.0599 2.03861 10.9041 2.03861H10.3301V1.9232C10.3301 0.862522 9.39029 0 8.23449 0H7.46045H3.02495H2.09554C0.940075 0 0 0.862555 0 1.9232V9.14627C0 10.2065 0.940075 11.0695 2.09554 11.0695ZM10.9041 2.66817C11.6828 2.66817 12.3138 3.24735 12.3138 3.96177V11.1849C12.3138 11.8993 11.6828 12.4785 10.9041 12.4785H10.5288H10.1301H5.69459H4.76518C3.98678 12.4785 3.35576 11.8993 3.35576 11.1849V11.0695V10.4399V3.96177C3.35576 3.24732 3.98678 2.66817 4.76518 2.66817H5.69459H9.64424H10.1301H10.33H10.9041ZM0.685759 1.9232C0.685759 1.20874 1.31678 0.629562 2.09554 0.629562H3.02495H7.46045H8.23449C9.01325 0.629562 9.64424 1.20874 9.64424 1.9232V2.03861H5.69459H4.76518C3.60971 2.03861 2.66964 2.9015 2.66964 3.96177V10.4399H2.09554C1.31678 10.4399 0.685759 9.86036 0.685759 9.14627V1.9232Z" fill="currentColor"/>
<path d="M4.53074 4.62842C4.38005 4.62842 4.25806 4.75044 4.25806 4.90113C4.25806 5.05179 4.38005 5.17382 4.53074 5.17382H9.98533C10.136 5.17382 10.258 5.05179 10.258 4.90113C10.258 4.75044 10.136 4.62842 9.98533 4.62842H4.53074Z" fill="currentColor"/>
<path d="M5.39246 6.75449C5.39246 6.90518 5.51485 7.02721 5.66554 7.02721H10.7769C10.9276 7.02721 11.05 6.90518 11.05 6.75449C11.05 6.6038 10.9276 6.48145 10.7769 6.48145H5.66554C5.51485 6.48145 5.39246 6.6038 5.39246 6.75449Z" fill="currentColor"/>
<path d="M9.59397 8.60716C9.59397 8.45647 9.47188 8.33447 9.32126 8.33447H4.53074C4.38005 8.33447 4.25806 8.45647 4.25806 8.60716C4.25806 8.75781 4.38005 8.88027 4.53074 8.88027H9.32126C9.47188 8.88027 9.59397 8.75781 9.59397 8.60716Z" fill="currentColor"/>
<path d="M10.777 10.1875H6.28782C6.13716 10.1875 6.01514 10.3096 6.01514 10.4602C6.01514 10.6109 6.13716 10.7329 6.28782 10.7329H10.777C10.9276 10.7329 11.0501 10.6109 11.0501 10.4602C11.05 10.3096 10.9276 10.1875 10.777 10.1875Z" fill="currentColor"/>
</svg>
