<svg width="28" height="28" viewBox="0 0 28 28" fill="none" xmlns="http://www.w3.org/2000/svg">
<path d="M3.7127 21.7932C2.22245 21.9199 0.843447 21.0576 0.265936 19.664C-0.309379 18.2755 0.0653808 16.6637 1.22919 15.6851C1.87404 15.1434 2.23416 14.5088 2.09801 13.6488C2.01164 13.102 1.70788 12.6936 1.29067 12.3481C0.544078 11.7296 0.128329 10.9362 0.0243915 9.96561C-0.200318 7.86491 1.59589 6.00062 3.70319 6.15433C3.99158 6.17556 4.29314 6.19239 4.57275 6.13603C5.5726 5.93401 6.19915 5.10617 6.18817 4.08583C6.18304 3.6269 6.1523 3.1504 6.25404 2.71049C6.57391 1.33223 7.45225 0.442902 8.82613 0.112059C10.1839 -0.215124 11.3528 0.18013 12.2861 1.2195C13.1029 2.12859 14.1284 2.35842 15.0492 1.78604C15.2724 1.6477 15.4686 1.45373 15.6457 1.25683C16.6009 0.196234 17.7772 -0.221711 19.1642 0.116451C20.5542 0.455345 21.4142 1.37175 21.74 2.761C21.819 3.0977 21.8234 3.46294 21.8015 3.81135C21.7056 5.33528 22.6286 6.27583 24.143 6.17117C26.2195 6.0277 27.8606 7.44037 27.9623 9.51107C28.0194 10.6771 27.5458 11.6352 26.647 12.3884C25.9092 13.0061 25.6369 13.8259 25.9692 14.6318C26.12 14.9971 26.3893 15.3499 26.6894 15.6112C27.7705 16.5547 28.2243 17.7155 27.8942 19.1048C27.5641 20.4948 26.6785 21.4134 25.2621 21.7427C24.9137 21.824 24.536 21.8415 24.1796 21.8071C22.7149 21.6651 21.6982 22.6306 21.8029 24.0952C21.9544 26.2172 20.6011 27.8187 18.4813 27.9607C17.3439 28.0368 16.396 27.583 15.6501 26.7164C14.9372 25.8878 13.9505 25.6448 13.0685 26.1176C12.7977 26.2625 12.5466 26.4799 12.3454 26.7149C11.355 27.8706 9.9548 28.2776 8.52676 27.796C7.10823 27.3173 6.205 26.1301 6.13547 24.6288C6.12229 24.339 6.18377 24.0469 6.18231 23.7556C6.17646 22.6913 5.2886 21.8079 4.22434 21.7947C4.05306 21.791 3.88325 21.7932 3.7127 21.7932ZM7.67915 3.73449C7.83652 6.18946 5.77827 7.87076 3.68489 7.5692C2.64625 7.41988 1.70715 8.1833 1.53734 9.22121C1.40412 10.0351 1.72399 10.6588 2.33956 11.1755C3.3255 12.0034 3.75955 13.0618 3.60584 14.3485C3.48799 15.333 2.99466 16.0964 2.23196 16.7113C1.48903 17.3108 1.28847 18.1715 1.66177 19.0382C2.03067 19.8953 2.82045 20.3381 3.73759 20.2635C4.13211 20.2313 4.54566 20.2576 4.93214 20.3403C6.75031 20.7319 7.85482 22.3268 7.67184 24.2511C7.58473 25.1668 8.04513 25.9676 8.85614 26.313C9.67739 26.6629 10.5491 26.4514 11.1691 25.7524C12.7721 23.9444 15.2197 23.9437 16.8059 25.7509C17.4185 26.4485 18.3005 26.6637 19.1181 26.3138C19.932 25.9654 20.3807 25.1844 20.3024 24.2519C20.0982 21.8291 21.893 20.0688 24.3084 20.3103C25.1245 20.3915 25.7599 20.0585 26.1815 19.3617C26.7334 18.4504 26.5328 17.4586 25.6881 16.7552C24.5192 15.7817 24.0998 14.5469 24.4584 13.0684C24.6488 12.283 25.1238 11.6784 25.743 11.1675C26.4501 10.5841 26.6587 9.67795 26.311 8.8589C25.967 8.04789 25.1589 7.58164 24.2506 7.67167C21.8834 7.90516 20.0784 6.08406 20.3024 3.70009C20.3837 2.83932 20.0367 2.18056 19.2879 1.7531C18.4462 1.2722 17.4588 1.47715 16.7876 2.2457C15.9275 3.23091 14.8545 3.68985 13.5428 3.53687C12.5788 3.42415 11.8059 2.96302 11.1713 2.23545C10.3588 1.30295 8.99082 1.27806 8.17835 2.16812C7.74942 2.64022 7.61255 3.2031 7.67915 3.73449Z" fill="currentColor"/>
<path d="M8.56266 13.9716C8.5934 10.9237 11.0264 8.52509 14.0501 8.56169C17.0496 8.59756 19.4453 11.0379 19.4117 14.0228C19.378 17.0516 16.9538 19.4414 13.9432 19.4136C10.9437 19.3851 8.53264 16.9469 8.56266 13.9716ZM17.8987 13.9921C17.8987 11.8094 16.1713 10.0834 13.9828 10.0805C11.822 10.0776 10.0858 11.8064 10.08 13.9672C10.0741 16.1542 11.7913 17.8882 13.9754 17.9007C16.1479 17.9131 17.8987 16.1681 17.8987 13.9921Z" fill="currentColor"/>
</svg>
