<svg width="18" height="19" viewBox="0 0 18 19" fill="none" xmlns="http://www.w3.org/2000/svg">
<circle cx="9.00019" cy="9.50019" r="8.58519" fill="#C8C8C8" stroke="#A0A0A0" stroke-width="0.170004"/>
<circle cx="9.00054" cy="9.50005" r="6.28619" fill="white"/>
<path d="M8.66585 6.02873C8.82236 5.78506 9.17851 5.78506 9.33502 6.02873L10.278 7.49687C10.3319 7.58071 10.4152 7.64128 10.5116 7.66659L12.1993 8.10975C12.4794 8.1833 12.5895 8.52202 12.4061 8.74617L11.3012 10.0967C11.2381 10.1738 11.2063 10.2718 11.212 10.3713L11.312 12.1133C11.3286 12.4025 11.0405 12.6118 10.7707 12.5067L9.1448 11.8732C9.05196 11.837 8.94891 11.837 8.85607 11.8732L7.23022 12.5067C6.96037 12.6118 6.67224 12.4025 6.68884 12.1133L6.7889 10.3713C6.79461 10.2718 6.76277 10.1738 6.69968 10.0967L5.59479 8.74617C5.41141 8.52202 5.52147 8.1833 5.80158 8.10975L7.48926 7.66659C7.58564 7.64128 7.66901 7.58071 7.72286 7.49687L8.66585 6.02873Z" fill="#FFB762"/>
</svg>
