<svg width="21" height="20" viewBox="0 0 21 20" fill="none" xmlns="http://www.w3.org/2000/svg">
<path d="M8.53244 1.58515C9.45307 0.151822 11.548 0.151824 12.4687 1.58515L14.0919 4.1123C14.4086 4.60546 14.899 4.96173 15.4659 5.1106L18.371 5.87341C20.0186 6.30606 20.666 8.2985 19.5873 9.617L17.6855 11.9417C17.3143 12.3953 17.127 12.9718 17.1606 13.557L17.3328 16.5556C17.4305 18.2563 15.7357 19.4877 14.1484 18.8692L11.3498 17.7788C10.8036 17.566 10.1975 17.566 9.65135 17.7788L6.85274 18.8692C5.26544 19.4877 3.57058 18.2563 3.66826 16.5555L3.84049 13.557C3.8741 12.9718 3.68679 12.3953 3.31565 11.9417L1.41379 9.617C0.335099 8.2985 0.982483 6.30606 2.63015 5.87341L5.5352 5.1106C6.10211 4.96173 6.59248 4.60546 6.90924 4.1123L8.53244 1.58515Z" fill="#FFB762"/>
</svg>
