<svg width="18" height="17" viewBox="0 0 18 17" fill="none" xmlns="http://www.w3.org/2000/svg">
<g clip-path="url(#clip0_6316_9063)">
<path d="M7.38941 5.79182C7.29689 5.10893 6.91758 3.74316 6.14046 3.74316C5.36333 3.74316 4.77257 4.27054 4.51484 4.51395C4.3149 4.70277 3.74961 5.26444 3.06764 6.5626C2.21518 8.1853 1.46186 11.3293 1.5015 12.3637C1.53993 13.367 1.93765 15.102 4.33643 15.0615C6.73521 15.0209 7.25065 14.169 7.82557 12.9723C7.98416 12.5463 8.11897 11.2441 8.26171 8.95608C8.24188 8.44899 7.85333 7.89727 7.64715 7.63764L7.72206 7.73479" stroke="#56ACDD" stroke-width="1.27" stroke-linecap="round"/>
<path d="M10.7629 5.77131C10.8554 5.08843 11.2348 3.72266 12.0119 3.72266C12.789 3.72266 13.3798 4.25003 13.6375 4.49344C13.8374 4.68226 14.4027 5.24394 15.0847 6.54209C15.9372 8.16479 16.6905 11.3088 16.6508 12.3432C16.6124 13.3465 16.2147 15.0815 13.8159 15.041C11.4171 15.0004 10.9017 14.1485 10.3268 12.9518C10.1682 12.5258 10.0334 11.2236 9.89064 8.93557C9.91046 8.42848 10.299 7.87676 10.5052 7.61713L10.2065 8.04576" stroke="#56ACDD" stroke-width="1.27" stroke-linecap="round"/>
<path d="M8.44161 2.56794V5.3671L6.97459 6.90866C6.88207 7.06417 6.76445 7.44415 7.03406 7.72001C7.30368 7.99587 7.60898 7.92961 7.72792 7.862L9.05617 6.54355L10.4241 7.862C10.5364 7.91609 10.8206 7.96342 11.0585 7.72001C11.2964 7.47661 11.1972 7.07769 11.1179 6.90866L9.67074 5.3671V2.56794C9.66413 2.37863 9.53196 2 9.05617 2C8.58038 2 8.44822 2.37863 8.44161 2.56794Z" stroke="#56ACDD" stroke-width="0.8"/>
</g>
<defs>
<clipPath id="clip0_6316_9063">
<rect width="17" height="17" fill="white" transform="translate(0.5)"/>
</clipPath>
</defs>
</svg>
