<svg width="208" height="208" viewBox="0 0 208 208" fill="none" xmlns="http://www.w3.org/2000/svg">
<circle cx="104" cy="104" r="101.553" fill="#FFDC62" stroke="#D7B43A" stroke-width="3.10589"/>
<ellipse cx="104.004" cy="104" rx="73.9535" ry="73.9535" fill="white"/>
<path d="M97.8874 66.5423C100.747 62.0906 107.254 62.0906 110.113 66.5423L118.486 79.5775C119.469 81.1093 120.992 82.2158 122.753 82.6782L137.738 86.6128C142.855 87.9566 144.866 94.1449 141.516 98.24L131.706 110.231C130.553 111.64 129.971 113.43 130.075 115.248L130.964 130.715C131.267 135.997 126.003 139.822 121.073 137.901L106.638 132.276C104.941 131.615 103.059 131.615 101.363 132.276L86.9272 137.901C81.9972 139.822 76.7331 135.997 77.0365 130.715L77.9249 115.248C78.0293 113.43 77.4475 111.64 76.2948 110.231L66.4848 98.24C63.1346 94.1449 65.1453 87.9566 70.2627 86.6128L85.2472 82.6782C87.008 82.2158 88.531 81.1093 89.5149 79.5775L97.8874 66.5423Z" fill="#FFB762"/>
</svg>
