<?xml version="1.0" encoding="utf-8"?>
<!-- Generator: Adobe Illustrator 23.1.1, SVG Export Plug-In . SVG Version: 6.00 Build 0)  -->
<svg version="1.1" id="Livello_1" xmlns="http://www.w3.org/2000/svg" xmlns:xlink="http://www.w3.org/1999/xlink" x="0px" y="0px"
	 viewBox="0 0 720 1480" style="enable-background:new 0 0 720 1480;" xml:space="preserve">
<path d="M-11-16.8v1513.4h747.7V-16.8H-11z M520.5,739c0,0.3,0,0.6,0,1c0,0.7,0,1.3,0,2l2,0c0,1.3,0,2.7,0,4l-2,0c0,1.3,0,2.6-0.1,4
	l2,0.1c0,1.3-0.1,2.7-0.1,4l-2-0.1c0,1.3-0.1,2.7-0.2,4l2,0.1c-0.1,1.3-0.1,2.7-0.2,4l-2-0.1c-0.1,1.3-0.2,2.6-0.2,3.9l2,0.1
	c-0.1,1.3-0.2,2.7-0.3,4l-2-0.2c-0.1,1.3-0.2,2.6-0.3,4l2,0.2c-0.1,1.3-0.2,2.6-0.4,4l-2-0.2c-0.1,1.3-0.3,2.6-0.4,4l2,0.2
	c-0.1,1.3-0.3,2.6-0.5,4l-2-0.2c-0.2,1.3-0.3,2.6-0.5,3.9l2,0.3c-0.2,1.3-0.4,2.6-0.5,4l-2-0.3c-0.2,1.3-0.4,2.6-0.6,3.9l2,0.3
	c-0.2,1.3-0.4,2.6-0.6,3.9l-2-0.3c-0.2,1.3-0.4,2.6-0.7,3.9l2,0.3c-0.2,1.3-0.5,2.6-0.7,3.9l-2-0.4c-0.2,1.3-0.5,2.6-0.8,3.9l2,0.4
	c-0.3,1.3-0.5,2.6-0.8,3.9l-2-0.4c-0.3,1.3-0.6,2.6-0.8,3.9l2,0.4c-0.3,1.3-0.6,2.6-0.9,3.9l-1.9-0.5c-0.3,1.3-0.6,2.6-0.9,3.9
	l1.9,0.5c-0.3,1.3-0.7,2.6-1,3.9l-1.9-0.5c-0.3,1.3-0.7,2.5-1,3.8l1.9,0.5c-0.4,1.3-0.7,2.6-1.1,3.9l-1.9-0.6
	c-0.4,1.3-0.7,2.5-1.1,3.8l1.9,0.6c-0.4,1.3-0.8,2.5-1.2,3.8l-1.9-0.6c-0.4,1.3-0.8,2.5-1.2,3.8l1.9,0.6c-0.4,1.3-0.8,2.5-1.3,3.8
	l-1.9-0.6c-0.4,1.2-0.9,2.5-1.3,3.7l1.9,0.7c-0.4,1.3-0.9,2.5-1.4,3.8l-1.9-0.7c-0.5,1.2-0.9,2.5-1.4,3.7l1.9,0.7
	c-0.5,1.2-1,2.5-1.5,3.7l-1.9-0.7c-0.5,1.2-1,2.5-1.5,3.7l1.8,0.8c-0.5,1.2-1,2.4-1.6,3.7l-1.8-0.8c-0.5,1.2-1.1,2.4-1.6,3.6
	l1.8,0.8c-0.5,1.2-1.1,2.4-1.7,3.6l-1.8-0.8c-0.6,1.2-1.1,2.4-1.7,3.6l1.8,0.9c-0.6,1.2-1.2,2.4-1.8,3.6l-1.8-0.9
	c-0.6,1.2-1.2,2.4-1.8,3.5l1.8,0.9c-0.6,1.2-1.2,2.4-1.9,3.5l-1.8-1c-0.6,1.2-1.3,2.3-1.9,3.5l1.7,1c-0.7,1.2-1.3,2.3-2,3.5l-1.7-1
	c-0.7,1.1-1.3,2.3-2,3.4l1.7,1c-0.7,1.1-1.4,2.3-2.1,3.4l-1.7-1.1c-0.7,1.1-1.4,2.2-2.1,3.3l1.7,1.1c-0.7,1.1-1.5,2.2-2.2,3.3
	l-1.7-1.1c-0.7,1.1-1.5,2.2-2.2,3.2l1.6,1.2c-0.8,1.1-1.5,2.2-2.3,3.2l-1.6-1.2c-0.8,1.1-1.6,2.1-2.4,3.2l1.6,1.2
	c-0.8,1.1-1.6,2.1-2.4,3.1l-1.6-1.2c-0.8,1-1.7,2.1-2.5,3.1l1.5,1.3c-0.8,1-1.7,2-2.6,3l-1.5-1.3c-0.9,1-1.7,2-2.6,3l1.5,1.3
	c-0.9,1-1.8,2-2.7,2.9l-1.5-1.4c-0.9,1-1.8,1.9-2.7,2.8l1.4,1.4c-0.9,1-1.9,1.9-2.8,2.8l-1.4-1.4c-0.9,0.9-1.9,1.8-2.8,2.7l1.4,1.5
	c-1,0.9-2,1.8-3,2.7l-1.3-1.5c-1,0.9-2,1.7-3,2.6l1.3,1.5c-1,0.9-2.1,1.7-3.1,2.5l-1.3-1.6c-1,0.8-2.1,1.6-3.1,2.4l1.2,1.6
	c-1.1,0.8-2.1,1.6-3.2,2.4l-1.2-1.6c-1.1,0.8-2.1,1.5-3.2,2.3l1.1,1.7c-1.1,0.7-2.2,1.5-3.3,2.2l-1.1-1.7c-1.1,0.7-2.2,1.4-3.4,2.1
	l1,1.7c-1.1,0.7-2.3,1.3-3.4,2l-1-1.7c-1.2,0.6-2.3,1.3-3.5,1.9l0.9,1.8c-1.2,0.6-2.4,1.2-3.6,1.8l-0.9-1.8
	c-1.2,0.6-2.4,1.1-3.6,1.6l0.8,1.8c-1.2,0.5-2.4,1-3.7,1.5l-0.7-1.9c-1.2,0.5-2.4,0.9-3.7,1.4l0.7,1.9c-1.3,0.4-2.5,0.9-3.8,1.3
	l-0.6-1.9c-1.2,0.4-2.5,0.8-3.8,1.1l0.5,1.9c-1.3,0.4-2.6,0.7-3.9,1l-0.5-1.9c-1.3,0.3-2.5,0.6-3.8,0.9l0.4,2
	c-1.3,0.3-2.6,0.5-3.9,0.7l-0.3-2c-1.3,0.2-2.6,0.4-3.9,0.6l0.3,2c-1.3,0.2-2.6,0.3-4,0.4l-0.2-2c-1.3,0.1-2.6,0.2-3.9,0.3l0.1,2
	c-1.3,0.1-2.7,0.1-4,0.1l0-2c-0.7,0-1.3,0-2,0c-0.7,0-1.3,0-2,0l0,2c-1.3,0-2.7-0.1-4-0.1l0.1-2c-1.3-0.1-2.6-0.2-3.9-0.3l-0.2,2
	c-1.3-0.1-2.7-0.3-4-0.4l0.3-2c-1.3-0.2-2.6-0.4-3.9-0.6l-0.3,2c-1.3-0.2-2.6-0.5-3.9-0.7l0.4-2c-1.3-0.3-2.6-0.5-3.8-0.9l-0.5,1.9
	c-1.3-0.3-2.6-0.7-3.9-1l0.5-1.9c-1.3-0.4-2.5-0.7-3.8-1.1l-0.6,1.9c-1.3-0.4-2.5-0.8-3.8-1.3l0.7-1.9c-1.2-0.4-2.5-0.9-3.7-1.4
	l-0.7,1.9c-1.2-0.5-2.5-1-3.7-1.5l0.8-1.8c-1.2-0.5-2.4-1.1-3.6-1.6l-0.9,1.8c-1.2-0.6-2.4-1.2-3.6-1.8l0.9-1.8
	c-1.2-0.6-2.3-1.2-3.5-1.9l-1,1.7c-1.2-0.6-2.3-1.3-3.4-2l1-1.7c-1.1-0.7-2.2-1.4-3.4-2.1l-1.1,1.7c-1.1-0.7-2.2-1.4-3.3-2.2
	l1.1-1.7c-1.1-0.7-2.2-1.5-3.2-2.3l-1.2,1.6c-1.1-0.8-2.1-1.6-3.2-2.4l1.2-1.6c-1-0.8-2.1-1.6-3.1-2.4l-1.3,1.6
	c-1-0.8-2.1-1.7-3.1-2.5l1.3-1.5c-1-0.8-2-1.7-3-2.6l-1.3,1.5c-1-0.9-2-1.8-3-2.7l1.4-1.5c-1-0.9-1.9-1.8-2.8-2.7l-1.4,1.4
	c-1-0.9-1.9-1.9-2.8-2.8l1.4-1.4c-0.9-0.9-1.8-1.9-2.7-2.8l-1.5,1.4c-0.9-1-1.8-1.9-2.7-2.9l1.5-1.3c-0.9-1-1.7-2-2.6-3l-1.5,1.3
	c-0.9-1-1.7-2-2.6-3l1.5-1.3c-0.8-1-1.7-2-2.5-3.1l-1.6,1.2c-0.8-1-1.6-2.1-2.4-3.1l1.6-1.2c-0.8-1-1.6-2.1-2.4-3.2l-1.6,1.2
	c-0.8-1.1-1.6-2.2-2.3-3.2l1.6-1.2c-0.8-1.1-1.5-2.2-2.2-3.2l-1.7,1.1c-0.7-1.1-1.5-2.2-2.2-3.3l1.7-1.1c-0.7-1.1-1.4-2.2-2.1-3.3
	l-1.7,1.1c-0.7-1.1-1.4-2.3-2.1-3.4l1.7-1c-0.7-1.1-1.4-2.3-2-3.4l-1.7,1c-0.7-1.1-1.3-2.3-2-3.5l1.7-1c-0.6-1.2-1.3-2.3-1.9-3.5
	l-1.8,1c-0.6-1.2-1.3-2.3-1.9-3.5l1.8-0.9c-0.6-1.2-1.2-2.3-1.8-3.5l-1.8,0.9c-0.6-1.2-1.2-2.4-1.8-3.6l1.8-0.9
	c-0.6-1.2-1.1-2.4-1.7-3.6l-1.8,0.8c-0.6-1.2-1.1-2.4-1.7-3.6l1.8-0.8c-0.5-1.2-1.1-2.4-1.6-3.6l-1.8,0.8c-0.5-1.2-1-2.4-1.6-3.7
	l1.8-0.8c-0.5-1.2-1-2.4-1.5-3.7l-1.9,0.7c-0.5-1.2-1-2.5-1.5-3.7l1.9-0.7c-0.5-1.2-0.9-2.5-1.4-3.7l-1.9,0.7
	c-0.5-1.2-0.9-2.5-1.4-3.8l1.9-0.7c-0.4-1.2-0.9-2.5-1.3-3.7l-1.9,0.6c-0.4-1.3-0.9-2.5-1.3-3.8l1.9-0.6c-0.4-1.3-0.8-2.5-1.2-3.8
	l-1.9,0.6c-0.4-1.3-0.8-2.5-1.2-3.8l1.9-0.6c-0.4-1.3-0.8-2.5-1.1-3.8l-1.9,0.6c-0.4-1.3-0.7-2.6-1.1-3.9l1.9-0.5
	c-0.3-1.3-0.7-2.5-1-3.8l-1.9,0.5c-0.3-1.3-0.7-2.6-1-3.9l1.9-0.5c-0.3-1.3-0.6-2.6-0.9-3.9l-1.9,0.5c-0.3-1.3-0.6-2.6-0.9-3.9
	l2-0.4c-0.3-1.3-0.6-2.6-0.8-3.9l-2,0.4c-0.3-1.3-0.5-2.6-0.8-3.9l2-0.4c-0.3-1.3-0.5-2.6-0.8-3.9l-2,0.4c-0.2-1.3-0.5-2.6-0.7-3.9
	l2-0.3c-0.2-1.3-0.5-2.6-0.7-3.9l-2,0.3c-0.2-1.3-0.4-2.6-0.6-3.9l2-0.3c-0.2-1.3-0.4-2.6-0.6-3.9l-2,0.3c-0.2-1.3-0.4-2.6-0.5-4
	l2-0.3c-0.2-1.3-0.3-2.6-0.5-3.9l-2,0.2c-0.2-1.3-0.3-2.6-0.5-4l2-0.2c-0.1-1.3-0.3-2.6-0.4-4l-2,0.2c-0.1-1.3-0.3-2.6-0.4-4l2-0.2
	c-0.1-1.3-0.2-2.6-0.3-4l-2,0.2c-0.1-1.3-0.2-2.7-0.3-4l2-0.1c-0.1-1.3-0.2-2.6-0.2-3.9l-2,0.1c-0.1-1.3-0.1-2.7-0.2-4l2-0.1
	c-0.1-1.3-0.1-2.6-0.2-4l-2,0.1c0-1.3-0.1-2.7-0.1-4l2-0.1c0-1.3-0.1-2.6-0.1-4l-2,0c0-1.3,0-2.7,0-4l2,0c0-0.7,0-1.3,0-2s0-1.3,0-2
	l-2,0c0-1.3,0-2.7,0-4l2,0c0-1.3,0-2.6,0.1-4l-2-0.1c0-1.3,0.1-2.7,0.1-4l2,0.1c0-1.3,0.1-2.7,0.2-4l-2-0.1c0.1-1.3,0.1-2.7,0.2-4
	l2,0.1c0.1-1.3,0.2-2.6,0.2-3.9l-2-0.1c0.1-1.3,0.2-2.7,0.3-4l2,0.2c0.1-1.3,0.2-2.6,0.3-4l-2-0.2c0.1-1.3,0.2-2.6,0.4-4l2,0.2
	c0.1-1.3,0.3-2.6,0.4-4l-2-0.2c0.1-1.3,0.3-2.6,0.5-4l2,0.2c0.2-1.3,0.3-2.6,0.5-3.9l-2-0.3c0.2-1.3,0.4-2.6,0.5-4l2,0.3
	c0.2-1.3,0.4-2.6,0.6-3.9l-2-0.3c0.2-1.3,0.4-2.6,0.6-3.9l2,0.3c0.2-1.3,0.4-2.6,0.7-3.9l-2-0.3c0.2-1.3,0.5-2.6,0.7-3.9l2,0.4
	c0.2-1.3,0.5-2.6,0.8-3.9l-2-0.4c0.3-1.3,0.5-2.6,0.8-3.9l2,0.4c0.3-1.3,0.6-2.6,0.8-3.9l-2-0.4c0.3-1.3,0.6-2.6,0.9-3.9l1.9,0.5
	c0.3-1.3,0.6-2.6,0.9-3.9l-1.9-0.5c0.3-1.3,0.7-2.6,1-3.9l1.9,0.5c0.3-1.3,0.7-2.5,1-3.8l-1.9-0.5c0.4-1.3,0.7-2.6,1.1-3.9l1.9,0.6
	c0.4-1.3,0.7-2.5,1.1-3.8l-1.9-0.6c0.4-1.3,0.8-2.5,1.2-3.8l1.9,0.6c0.4-1.3,0.8-2.5,1.2-3.8l-1.9-0.6c0.4-1.3,0.8-2.5,1.3-3.8
	l1.9,0.6c0.4-1.2,0.9-2.5,1.3-3.7l-1.9-0.7c0.4-1.3,0.9-2.5,1.4-3.8l1.9,0.7c0.5-1.2,0.9-2.5,1.4-3.7l-1.9-0.7
	c0.5-1.2,1-2.5,1.5-3.7l1.9,0.7c0.5-1.2,1-2.5,1.5-3.7l-1.8-0.8c0.5-1.2,1-2.4,1.6-3.7l1.8,0.8c0.5-1.2,1.1-2.4,1.6-3.6l-1.8-0.8
	c0.5-1.2,1.1-2.4,1.7-3.6l1.8,0.8c0.6-1.2,1.1-2.4,1.7-3.6l-1.8-0.9c0.6-1.2,1.2-2.4,1.8-3.6l1.8,0.9c0.6-1.2,1.2-2.4,1.8-3.5
	l-1.8-0.9c0.6-1.2,1.2-2.4,1.9-3.5l1.8,1c0.6-1.2,1.3-2.3,1.9-3.5l-1.7-1c0.7-1.2,1.3-2.3,2-3.5l1.7,1c0.7-1.1,1.3-2.3,2-3.4l-1.7-1
	c0.7-1.1,1.4-2.3,2.1-3.4l1.7,1.1c0.7-1.1,1.4-2.2,2.1-3.3l-1.7-1.1c0.7-1.1,1.5-2.2,2.2-3.3l1.7,1.1c0.7-1.1,1.5-2.2,2.2-3.2
	l-1.6-1.2c0.8-1.1,1.5-2.2,2.3-3.2l1.6,1.2c0.8-1.1,1.6-2.1,2.4-3.2l-1.6-1.2c0.8-1.1,1.6-2.1,2.4-3.1l1.6,1.2
	c0.8-1,1.7-2.1,2.5-3.1l-1.5-1.3c0.8-1,1.7-2,2.6-3l1.5,1.3c0.9-1,1.7-2,2.6-3l-1.5-1.3c0.9-1,1.8-2,2.7-2.9l1.5,1.4
	c0.9-1,1.8-1.9,2.7-2.8l-1.4-1.4c0.9-1,1.9-1.9,2.8-2.8l1.4,1.4c0.9-0.9,1.9-1.8,2.8-2.7l-1.4-1.5c1-0.9,2-1.8,3-2.7l1.3,1.5
	c1-0.9,2-1.7,3-2.6l-1.3-1.5c1-0.9,2.1-1.7,3.1-2.5l1.3,1.6c1-0.8,2.1-1.6,3.1-2.4l-1.2-1.6c1.1-0.8,2.1-1.6,3.2-2.4l1.2,1.6
	c1.1-0.8,2.1-1.5,3.2-2.3l-1.1-1.7c1.1-0.7,2.2-1.5,3.3-2.2l1.1,1.7c1.1-0.7,2.2-1.4,3.4-2.1l-1-1.7c1.1-0.7,2.3-1.3,3.4-2l1,1.7
	c1.2-0.6,2.3-1.3,3.5-1.9l-0.9-1.8c1.2-0.6,2.4-1.2,3.6-1.8l0.9,1.8c1.2-0.6,2.4-1.1,3.6-1.6l-0.8-1.8c1.2-0.5,2.4-1,3.7-1.5
	l0.7,1.9c1.2-0.5,2.4-0.9,3.7-1.4l-0.7-1.9c1.3-0.4,2.5-0.9,3.8-1.3l0.6,1.9c1.2-0.4,2.5-0.8,3.8-1.1l-0.5-1.9
	c1.3-0.4,2.6-0.7,3.9-1l0.5,1.9c1.3-0.3,2.5-0.6,3.8-0.9l-0.4-2c1.3-0.3,2.6-0.5,3.9-0.7l0.3,2c1.3-0.2,2.6-0.4,3.9-0.6l-0.3-2
	c1.3-0.2,2.6-0.3,4-0.4l0.2,2c1.3-0.1,2.6-0.2,3.9-0.3l-0.1-2c1.3-0.1,2.7-0.1,4-0.1l0,2c0.7,0,1.3,0,2,0s1.3,0,2,0l0-2
	c1.3,0,2.7,0.1,4,0.1l-0.1,2c1.3,0.1,2.6,0.2,3.9,0.3l0.2-2c1.3,0.1,2.6,0.3,4,0.4l-0.3,2c1.3,0.2,2.6,0.4,3.9,0.6l0.3-2
	c1.3,0.2,2.6,0.5,3.9,0.7l-0.4,2c1.3,0.3,2.6,0.5,3.8,0.9l0.5-1.9c1.3,0.3,2.6,0.7,3.9,1l-0.5,1.9c1.3,0.4,2.5,0.7,3.8,1.1l0.6-1.9
	c1.3,0.4,2.5,0.8,3.8,1.3l-0.7,1.9c1.2,0.4,2.5,0.9,3.7,1.4l0.7-1.9c1.2,0.5,2.5,1,3.7,1.5l-0.8,1.8c1.2,0.5,2.4,1.1,3.6,1.6
	l0.9-1.8c1.2,0.6,2.4,1.2,3.6,1.8l-0.9,1.8c1.2,0.6,2.3,1.2,3.5,1.9l1-1.7c1.2,0.6,2.3,1.3,3.4,2l-1,1.7c1.1,0.7,2.2,1.4,3.4,2.1
	l1.1-1.7c1.1,0.7,2.2,1.4,3.3,2.2l-1.1,1.7c1.1,0.7,2.2,1.5,3.2,2.3l1.2-1.6c1.1,0.8,2.1,1.6,3.2,2.4l-1.2,1.6
	c1,0.8,2.1,1.6,3.1,2.4l1.3-1.6c1,0.8,2.1,1.7,3.1,2.5l-1.3,1.5c1,0.8,2,1.7,3,2.6l1.3-1.5c1,0.9,2,1.8,3,2.7l-1.4,1.5
	c1,0.9,1.9,1.8,2.8,2.7l1.4-1.4c1,0.9,1.9,1.9,2.8,2.8l-1.4,1.4c0.9,0.9,1.8,1.9,2.7,2.8l1.5-1.4c0.9,1,1.8,1.9,2.7,2.9l-1.5,1.3
	c0.9,1,1.7,2,2.6,3l1.5-1.3c0.9,1,1.7,2,2.6,3l-1.5,1.3c0.8,1,1.7,2,2.5,3.1l1.6-1.2c0.8,1,1.6,2.1,2.4,3.1l-1.6,1.2
	c0.8,1,1.6,2.1,2.4,3.2l1.6-1.2c0.8,1.1,1.6,2.2,2.3,3.2l-1.6,1.2c0.8,1.1,1.5,2.2,2.2,3.2l1.7-1.1c0.7,1.1,1.5,2.2,2.2,3.3
	l-1.7,1.1c0.7,1.1,1.4,2.2,2.1,3.3l1.7-1.1c0.7,1.1,1.4,2.3,2.1,3.4l-1.7,1c0.7,1.1,1.4,2.3,2,3.4l1.7-1c0.7,1.1,1.3,2.3,2,3.5
	l-1.7,1c0.6,1.2,1.3,2.3,1.9,3.5l1.8-1c0.6,1.2,1.3,2.3,1.9,3.5l-1.8,0.9c0.6,1.2,1.2,2.3,1.8,3.5l1.8-0.9c0.6,1.2,1.2,2.4,1.8,3.6
	l-1.8,0.9c0.6,1.2,1.1,2.4,1.7,3.6l1.8-0.8c0.6,1.2,1.1,2.4,1.7,3.6l-1.8,0.8c0.5,1.2,1.1,2.4,1.6,3.6l1.8-0.8
	c0.5,1.2,1,2.4,1.6,3.7l-1.8,0.8c0.5,1.2,1,2.4,1.5,3.7l1.9-0.7c0.5,1.2,1,2.5,1.5,3.7l-1.9,0.7c0.5,1.2,0.9,2.5,1.4,3.7l1.9-0.7
	c0.5,1.2,0.9,2.5,1.4,3.8l-1.9,0.7c0.4,1.2,0.9,2.5,1.3,3.7l1.9-0.6c0.4,1.3,0.9,2.5,1.3,3.8l-1.9,0.6c0.4,1.3,0.8,2.5,1.2,3.8
	l1.9-0.6c0.4,1.3,0.8,2.5,1.2,3.8l-1.9,0.6c0.4,1.3,0.8,2.5,1.1,3.8l1.9-0.6c0.4,1.3,0.7,2.6,1.1,3.9l-1.9,0.5
	c0.3,1.3,0.7,2.5,1,3.8l1.9-0.5c0.3,1.3,0.7,2.6,1,3.9l-1.9,0.5c0.3,1.3,0.6,2.6,0.9,3.9l1.9-0.5c0.3,1.3,0.6,2.6,0.9,3.9l-2,0.4
	c0.3,1.3,0.6,2.6,0.8,3.9l2-0.4c0.3,1.3,0.5,2.6,0.8,3.9l-2,0.4c0.3,1.3,0.5,2.6,0.8,3.9l2-0.4c0.2,1.3,0.5,2.6,0.7,3.9l-2,0.3
	c0.2,1.3,0.5,2.6,0.7,3.9l2-0.3c0.2,1.3,0.4,2.6,0.6,3.9l-2,0.3c0.2,1.3,0.4,2.6,0.6,3.9l2-0.3c0.2,1.3,0.4,2.6,0.5,4l-2,0.3
	c0.2,1.3,0.3,2.6,0.5,3.9l2-0.2c0.2,1.3,0.3,2.6,0.5,4l-2,0.2c0.1,1.3,0.3,2.6,0.4,4l2-0.2c0.1,1.3,0.3,2.6,0.4,4l-2,0.2
	c0.1,1.3,0.2,2.6,0.3,4l2-0.2c0.1,1.3,0.2,2.7,0.3,4l-2,0.1c0.1,1.3,0.2,2.6,0.2,3.9l2-0.1c0.1,1.3,0.1,2.7,0.2,4l-2,0.1
	c0.1,1.3,0.1,2.6,0.2,4l2-0.1c0,1.3,0.1,2.7,0.1,4l-2,0.1c0,1.3,0.1,2.6,0.1,4l2,0c0,1.3,0,2.7,0,4l-2,0
	C520.5,738.4,520.5,738.7,520.5,739z"/>
</svg>
