<svg width="204" height="204" viewBox="0 0 204 204" fill="none" xmlns="http://www.w3.org/2000/svg">
<circle cx="102" cy="102" r="101" fill="#C8C8C8" stroke="#A0A0A0" stroke-width="2"/>
<circle cx="102.004" cy="101.998" r="73.9535" fill="white"/>
<path d="M98.0678 61.1537C99.9091 58.287 104.099 58.287 105.94 61.1537L117.034 78.4256C117.668 79.4119 118.648 80.1245 119.782 80.4222L139.637 85.6357C142.932 86.501 144.227 90.4859 142.07 93.1229L129.071 109.011C128.329 109.918 127.954 111.071 128.022 112.242L129.199 132.736C129.394 136.137 126.004 138.6 122.83 137.363L103.702 129.91C102.61 129.485 101.398 129.485 100.306 129.91L81.1785 137.363C78.0039 138.6 74.6141 136.137 74.8095 132.736L75.9866 112.242C76.0538 111.071 75.6792 109.918 74.9369 109.011L61.9386 93.1229C59.7812 90.4859 61.0759 86.501 64.3713 85.6357L84.226 80.4222C85.3598 80.1245 86.3405 79.4119 86.9741 78.4256L98.0678 61.1537Z" fill="#FFB762"/>
</svg>
