<svg width="208" height="208" viewBox="0 0 208 208" fill="none" xmlns="http://www.w3.org/2000/svg">
<circle cx="104" cy="104" r="101.553" fill="#98A0F5" stroke="#7078CD" stroke-width="3.10589"/>
<ellipse cx="104.004" cy="104" rx="73.9535" ry="73.9535" fill="white" fill-opacity="0.8"/>
<path d="M104.044 115.295C102.04 115.295 100.421 114.64 99.1882 113.33C98.0322 112.02 97.3 110.209 96.9917 107.896L92.9456 72.9836C92.4061 68.9759 93.1382 65.739 95.1421 63.2727C97.1459 60.7294 100.113 59.4578 104.044 59.4578C108.051 59.4578 111.019 60.7294 112.945 63.2727C114.872 65.739 115.566 68.9759 115.026 72.9836L111.096 107.896C110.787 110.209 110.055 112.02 108.899 113.33C107.743 114.64 106.125 115.295 104.044 115.295ZM104.044 142.694C100.576 142.694 97.801 141.653 95.7201 139.572C93.7163 137.491 92.7143 134.755 92.7143 131.364C92.7143 128.05 93.7163 125.391 95.7201 123.388C97.801 121.307 100.576 120.266 104.044 120.266C107.666 120.266 110.441 121.307 112.367 123.388C114.371 125.391 115.373 128.05 115.373 131.364C115.373 134.755 114.371 137.491 112.367 139.572C110.441 141.653 107.666 142.694 104.044 142.694Z" fill="#9C7CEB"/>
</svg>
